<?xml version="1.0" encoding="utf-8"?>
<!-- Generator: Adobe Illustrator 16.0.0, SVG Export Plug-In . SVG Version: 6.00 Build 0)  -->
<!DOCTYPE svg PUBLIC "-//W3C//DTD SVG 1.1//EN" "http://www.w3.org/Graphics/SVG/1.1/DTD/svg11.dtd">
<svg version="1.1" id="Layer_1" xmlns="http://www.w3.org/2000/svg" xmlns:xlink="http://www.w3.org/1999/xlink" x="0px" y="0px"
	 width="75px" height="75px" viewBox="0 0 75 75" enable-background="new 0 0 75 75" xml:space="preserve">
<g>
	<path fill="#004282" d="M74.342,37.5c0,20.347-16.494,36.841-36.841,36.841c-20.349,0-36.842-16.494-36.842-36.841
		c0-20.345,16.493-36.84,36.842-36.84C57.848,0.66,74.342,17.155,74.342,37.5"/>
	<path fill="#FFFFFF" d="M10.747,46.905l0.714-0.23c1.041-0.322,1.333-0.684,2.275-3.246l6.535-17.972h4.03l6.697,17.937
		c0.907,2.438,1.264,3.055,2.272,3.346l0.586,0.166v1.072h-12.22v-1.072l0.907-0.23c0.847-0.227,1.205-0.684,1.205-1.396
		c0-0.615-0.291-1.494-0.65-2.5l-0.487-1.463h-6.143l-0.488,1.494c-0.325,0.941-0.552,1.752-0.552,2.34
		c0,0.975,0.39,1.203,1.528,1.525l0.811,0.23v1.072h-7.02V46.905z M17.02,39.69h5.037L19.62,32.41h-0.163L17.02,39.69z"/>
	<path fill="#FFFFFF" d="M28.397,51.001c0-1.562,1.007-2.441,2.536-2.441c1.82,0,2.664,0.748,3.085,3.576
		c0.101,0.65,0.23,0.783,0.492,0.783c0.682,0,1.039-0.52,1.039-2.215V29.355c0-2.212-0.326-2.341-1.431-2.602l-0.91-0.228v-1.074
		h11.892v1.074l-0.906,0.228c-1.139,0.292-1.43,0.39-1.43,2.602v16.441c0,5.041-3.543,8.549-9.104,8.549
		C30.119,54.345,28.397,52.882,28.397,51.001"/>
	<path fill="#FFFFFF" d="M44.723,36.894c0-8.223,5.818-11.829,12.223-11.829c2.537,0,4.873,0.356,6.238,0.746l0.424,6.891h-1.137
		c-1.201-2.242-2.082-3.576-2.893-4.616c-0.943-1.201-1.723-1.56-2.99-1.56c-3.35,0-4.26,2.83-4.26,9.718
		c0,8.712,1.365,10.66,4.518,10.66c1.365,0,2.211-0.49,3.285-1.881c0.846-1.141,1.688-2.637,2.664-4.779H63.9l-0.391,6.857
		c-1.561,0.582-3.902,1.264-7.088,1.264C49.566,48.364,44.723,44.335,44.723,36.894"/>
</g>
</svg>
