<?xml version="1.0" encoding="utf-8"?>
<!-- Generator: Adobe Illustrator 15.1.0, SVG Export Plug-In . SVG Version: 6.00 Build 0)  -->
<!DOCTYPE svg PUBLIC "-//W3C//DTD SVG 1.1//EN" "http://www.w3.org/Graphics/SVG/1.1/DTD/svg11.dtd">
<svg version="1.1" id="Layer_1" xmlns="http://www.w3.org/2000/svg" xmlns:xlink="http://www.w3.org/1999/xlink" x="0px" y="0px"
 width="354px" height="67px" viewBox="0 0 354 67" enable-background="new 0 0 354 67" xml:space="preserve">
<path fill="#231F20" d="M6.158,26.064l1.075-0.242c1.451-0.312,1.625-0.416,1.625-2.77V4.947H8.684
c-1.348,0-1.938,0.312-2.836,1.453c-0.902,1.142-1.628,2.734-2.839,5.332H1.762L2.04,3.217h21.325l0.275,8.515h-1.244
c-1.178-2.597-1.904-4.189-2.805-5.332c-1.004-1.246-1.422-1.453-2.875-1.453h-0.171v18.105c0,2.354,0.171,2.458,1.623,2.77
l1.077,0.242v1.143H6.158V26.064z"/>
<path fill="#231F20" d="M24.576,26.1l0.658-0.174c1.385-0.38,1.454-0.485,1.454-2.077V5.917c0-1.834-0.035-2.078-1.109-2.631
l-1.176-0.589V1.763L33.021,1l0.45,0.311c0,0-0.104,1.732-0.104,4.051v2.112c0,2.077-0.103,3.601-0.103,3.601h0.173
c1.939-1.384,3.914-2.492,6.611-2.492c2.701,0,4.502,1.557,4.502,4.638v10.628c0,1.628,0.104,1.731,1.453,2.077l0.658,0.174v1.107
H36.068V26.1l0.554-0.14c1.214-0.312,1.248-0.38,1.248-2.111v-8.932c0-1.938-0.761-2.527-2.077-2.527
c-1.006,0-1.801,0.104-2.425,0.208v11.251c0,1.766,0.035,1.8,1.247,2.111l0.554,0.14v1.107H24.576V26.1z"/>
<path fill="#231F20" d="M46.87,18.103c0-6.268,4.777-9.52,9.383-9.52c5.053,0,8.204,2.421,8.377,8.689H53.344
c0.174,5.608,2.179,6.889,5.747,6.889c1.905,0,3.566-0.554,4.915-1.247v1.213c-1.384,1.66-4.119,3.496-7.752,3.496
C50.02,27.623,46.87,24.161,46.87,18.103 M53.344,15.852l4.847-0.311c0-4.188-0.518-5.472-2.286-5.472
C54.521,10.069,53.447,11.489,53.344,15.852"/>
<path fill="#231F20" d="M69.304,26.064l0.762-0.242c1.108-0.346,1.417-0.727,2.422-3.461l6.959-19.145h4.292l7.133,19.109
c0.968,2.595,1.349,3.255,2.422,3.565l0.624,0.174v1.143H80.902v-1.143l0.967-0.242c0.9-0.242,1.282-0.727,1.282-1.489
c0-0.657-0.311-1.592-0.691-2.665l-0.521-1.558h-6.541l-0.521,1.593c-0.346,1.004-0.587,1.869-0.587,2.493
c0,1.037,0.415,1.281,1.626,1.626l0.864,0.242v1.143h-7.476V26.064z M75.985,18.379h5.364l-2.595-7.755h-0.174L75.985,18.379z"/>
<path fill="#231F20" d="M94.437,22.222V11.421h-2.079v-0.969c2.908-1.178,5.193-3.394,6.198-6.267h2.562v4.847h4.499l-0.518,2.389
h-3.981V21.91c0,1.835,0.417,2.527,2.25,2.527c0.727,0,1.802-0.138,2.389-0.241v1.14c-0.934,0.936-2.804,2.287-6.022,2.287
C96.099,27.623,94.437,26.029,94.437,22.222"/>
<path fill="#231F20" d="M106.276,26.1l0.657-0.174c1.491-0.38,1.559-0.485,1.559-2.077V5.917c0-1.834-0.068-2.043-1.211-2.631
l-1.178-0.589V1.763L114.825,1l0.453,0.311c0,0-0.106,1.732-0.106,4.051v18.486c0,1.628,0.071,1.697,1.56,2.077l0.659,0.174v1.107
h-11.113V26.1z"/>
<path fill="#231F20" d="M117.908,23.053c0-3.152,2.145-4.571,6.923-5.747l2.737-0.693v-2.734c0-3.15-0.66-3.74-2.079-3.74
c-0.796,0-1.073,0.208-1.142,1.177c-0.174,2.667-1.178,3.463-3.151,3.463c-1.628,0-2.631-0.762-2.631-2.39
c0-2.25,2.458-3.807,8.343-3.807c4.432,0,7.34,1.279,7.34,4.914v9.002c0,1.488,0.103,1.974,0.763,2.318
c0.447,0.243,1.246,0.347,1.589,0.347v1.039c-0.726,0.555-2.179,1.42-4.639,1.42c-2.146,0-3.53-0.729-4.016-2.183h-0.137
c-0.936,1.107-2.283,2.183-4.673,2.183C119.846,27.623,117.908,25.926,117.908,23.053 M127.568,24.057v-5.505l-1.039,0.07
c-1.525,0.104-2.112,0.831-2.112,3.254c0,2.39,0.898,2.873,1.901,2.873C126.942,24.749,127.324,24.507,127.568,24.057"/>
<path fill="#231F20" d="M137.501,26.1l0.658-0.174c1.387-0.38,1.455-0.485,1.455-2.077V13.531c0-1.521-0.141-1.661-1.178-2.456
l-1.111-0.832V9.447l8.347-0.865l0.449,0.31l-0.069,2.321h0.173c1.868-1.42,4.052-2.631,6.751-2.631
c2.701,0,4.502,1.557,4.502,4.638v10.628c0,1.628,0.103,1.731,1.455,2.077l0.657,0.174v1.107h-10.595V26.1l0.556-0.14
c1.209-0.312,1.245-0.38,1.245-2.111v-8.932c0-1.938-0.76-2.527-2.076-2.527c-1.005,0-1.802,0.104-2.425,0.208v11.251
c0,1.766,0.034,1.8,1.247,2.111l0.552,0.14v1.107h-10.592V26.1z"/>
<path fill="#231F20" d="M161.457,22.222V11.421h-2.076v-0.969c2.907-1.178,5.194-3.394,6.197-6.267h2.561v4.847h4.5l-0.521,2.389
h-3.979V21.91c0,1.835,0.416,2.527,2.251,2.527c0.727,0,1.801-0.138,2.389-0.241v1.14c-0.935,0.936-2.804,2.287-6.025,2.287
C163.119,27.623,161.457,26.029,161.457,22.222"/>
<path fill="#231F20" d="M173.575,23.053c0-3.152,2.146-4.571,6.922-5.747l2.735-0.693v-2.734c0-3.15-0.658-3.74-2.076-3.74
c-0.797,0-1.073,0.208-1.145,1.177c-0.172,2.667-1.175,3.463-3.15,3.463c-1.624,0-2.63-0.762-2.63-2.39
c0-2.25,2.458-3.807,8.343-3.807c4.433,0,7.34,1.279,7.34,4.914v9.002c0,1.488,0.105,1.974,0.762,2.318
c0.451,0.243,1.248,0.347,1.594,0.347v1.039c-0.729,0.555-2.182,1.42-4.642,1.42c-2.146,0-3.528-0.729-4.016-2.183h-0.137
c-0.935,1.107-2.284,2.183-4.673,2.183C175.513,27.623,173.575,25.926,173.575,23.053 M183.232,24.057v-5.505l-1.037,0.07
c-1.523,0.104-2.112,0.831-2.112,3.254c0,2.39,0.897,2.873,1.904,2.873C182.609,24.749,182.99,24.507,183.232,24.057"/>
<path fill="#231F20" d="M1,60.095c0-1.662,1.072-2.597,2.7-2.597c1.939,0,2.839,0.798,3.288,3.809
c0.104,0.692,0.245,0.832,0.521,0.832c0.727,0,1.108-0.555,1.108-2.354V37.039c0-2.355-0.348-2.492-1.525-2.77l-0.969-0.243v-1.143
h12.669v1.143l-0.966,0.243c-1.213,0.311-1.524,0.414-1.524,2.77v17.516c0,5.367-3.773,9.106-9.693,9.106
C2.834,63.661,1,62.102,1,60.095"/>
<path fill="#231F20" d="M18.136,47.84c0-6.959,4.987-9.59,9.832-9.59c5.089,0,9.832,3.012,9.832,9.453
c0,6.957-4.882,9.588-9.832,9.588C22.845,57.291,18.136,54.278,18.136,47.84 M30.875,47.979c0-7.443-1.177-8.171-3.009-8.171
c-1.733,0-2.805,1.212-2.805,7.409c0,7.581,0.9,8.516,2.978,8.516C29.594,55.732,30.875,55.214,30.875,47.979"/>
<path fill="#231F20" d="M39.946,52.651v-9.554c0-1.523-0.035-1.697-1.177-2.458l-1.107-0.728v-0.797l8.515-0.865l0.45,0.311v12.395
c0,2.078,0.728,2.667,2.041,2.667c1.041,0,1.871-0.278,2.461-0.45V43.098c0-1.523-0.105-1.767-1.178-2.458l-1.107-0.728v-0.797
l8.516-0.865l0.452,0.311v13.815c0,1.799,0.035,1.972,1.176,2.423l0.866,0.346v0.969l-8.102,1.178l-0.45-0.312l0.068-2.425h-0.171
c-1.87,1.421-3.913,2.736-6.75,2.736C41.745,57.291,39.946,55.732,39.946,52.651"/>
<path fill="#231F20" d="M61.03,55.768l0.658-0.173c1.384-0.381,1.455-0.485,1.455-2.077V43.201c0-1.523-0.139-1.662-1.179-2.457
l-1.109-0.832v-0.797l8.345-0.865l0.45,0.311l-0.07,2.564h0.175c0.968-1.143,2.941-2.84,5.122-2.84c1.766,0,2.874,0.969,2.874,2.873
c0,1.869-1.143,2.941-2.664,2.941c-1.803,0-2.217-0.414-3.119-1.693c-0.205-0.313-0.485-0.383-0.794-0.383
c-0.555,0-0.97,0.312-1.352,0.623v10.871c0,1.73,0.105,1.869,1.316,2.077l0.796,0.138v1.143H61.03V55.768z"/>
<path fill="#231F20" d="M78.475,55.768l0.661-0.173c1.385-0.381,1.452-0.485,1.452-2.077V43.201c0-1.523-0.136-1.662-1.177-2.457
l-1.109-0.832v-0.797l8.345-0.865l0.45,0.311l-0.068,2.32h0.173c1.87-1.42,4.051-2.631,6.75-2.631c2.701,0,4.502,1.558,4.502,4.639
v10.629c0,1.627,0.103,1.73,1.453,2.077l0.658,0.173v1.107H89.97v-1.107l0.554-0.138c1.212-0.313,1.248-0.382,1.248-2.112v-8.933
c0-1.938-0.761-2.526-2.078-2.526c-1.006,0-1.8,0.103-2.422,0.207v11.252c0,1.766,0.033,1.799,1.245,2.112l0.555,0.138v1.107H78.475
V55.768z"/>
<path fill="#231F20" d="M101.257,52.721c0-3.15,2.145-4.57,6.924-5.746l2.733-0.692v-2.734c0-3.151-0.656-3.74-2.076-3.74
c-0.798,0-1.073,0.209-1.144,1.177c-0.173,2.666-1.176,3.462-3.149,3.462c-1.628,0-2.631-0.761-2.631-2.388
c0-2.251,2.457-3.809,8.344-3.809c4.428,0,7.338,1.281,7.338,4.916v9c0,1.489,0.105,1.975,0.76,2.321
c0.452,0.241,1.249,0.345,1.593,0.345v1.04c-0.726,0.554-2.181,1.419-4.638,1.419c-2.147,0-3.529-0.728-4.017-2.182h-0.139
c-0.934,1.108-2.285,2.182-4.671,2.182C103.194,57.291,101.257,55.595,101.257,52.721 M110.914,53.727v-5.506l-1.038,0.07
c-1.521,0.102-2.111,0.83-2.111,3.252c0,2.391,0.899,2.875,1.903,2.875C110.292,54.418,110.672,54.175,110.914,53.727"/>
<path fill="#231F20" d="M120.884,55.768l0.659-0.173c1.488-0.381,1.557-0.485,1.557-2.077V35.584c0-1.834-0.068-2.042-1.212-2.629
l-1.175-0.59v-0.935l8.725-0.763l0.451,0.311c0,0-0.106,1.733-0.106,4.052v18.487c0,1.627,0.069,1.696,1.558,2.077l0.656,0.173
v1.107h-11.112V55.768z"/>
<polygon fill="#231F20" points="132.274,44.932 140.205,44.932 139.684,48.878 131.79,48.878 "/>
<path fill="#231F20" d="M141.76,45.07c0-8.758,6.196-12.602,13.017-12.602c2.701,0,5.192,0.381,6.646,0.797l0.451,7.338h-1.212
c-1.281-2.387-2.215-3.808-3.081-4.914c-1.004-1.281-1.835-1.663-3.186-1.663c-3.564,0-4.534,3.013-4.534,10.353
c0,9.276,1.452,11.354,4.811,11.354c1.455,0,2.356-0.519,3.497-2.006c0.901-1.213,1.799-2.808,2.839-5.09h1.176l-0.417,7.304
c-1.659,0.623-4.153,1.351-7.546,1.351C146.917,57.291,141.76,52.998,141.76,45.07"/>
<path fill="#231F20" d="M163.986,47.84c0-6.959,4.983-9.59,9.83-9.59c5.09,0,9.834,3.012,9.834,9.453
c0,6.957-4.884,9.588-9.834,9.588C168.691,57.291,163.986,54.278,163.986,47.84 M176.722,47.979c0-7.443-1.172-8.171-3.008-8.171
c-1.731,0-2.804,1.212-2.804,7.409c0,7.581,0.899,8.516,2.975,8.516C175.442,55.732,176.722,55.214,176.722,47.979"/>
<path fill="#231F20" d="M184.027,55.768l0.659-0.173c1.384-0.381,1.454-0.485,1.454-2.077V43.201c0-1.523-0.139-1.662-1.174-2.457
l-1.11-0.832v-0.797l8.343-0.865l0.449,0.311l-0.068,2.32h0.171c1.87-1.42,4.051-2.631,6.753-2.631c2.7,0,4.502,1.558,4.502,4.639
v10.629c0,1.627,0.103,1.73,1.451,2.077l0.658,0.173v1.107h-10.592v-1.107l0.552-0.138c1.214-0.313,1.248-0.382,1.248-2.112v-8.933
c0-1.938-0.763-2.526-2.077-2.526c-1.004,0-1.801,0.103-2.424,0.207v11.252c0,1.766,0.033,1.799,1.246,2.112l0.553,0.138v1.107
h-10.594V55.768z"/>
<path fill="#231F20" d="M207.711,56.634l-0.313-5.575h1.141c0.833,1.386,1.559,2.459,2.495,3.462
c0.656,0.728,1.627,1.212,2.94,1.212c1.422,0,2.458-0.727,2.458-2.11c0-1.456-0.896-2.079-4.119-3.253
c-3.184-1.18-4.95-2.771-4.95-5.923c0-3.356,2.493-6.196,7.894-6.196c2.043,0,4.014,0.312,4.883,0.623l0.242,4.881h-1.074
c-0.764-1.246-1.387-2.111-2.111-2.873c-0.764-0.795-1.316-1.073-2.666-1.073c-1.038,0-2.009,0.726-2.009,1.974
c0,1.212,0.382,1.869,3.116,2.839c4.639,1.662,5.99,3.53,5.99,6.231c0,3.843-2.842,6.439-8.311,6.439
C211.24,57.291,209.129,57.014,207.711,56.634"/>
<path fill="#231F20" d="M224.082,51.89v-10.8h-2.075v-0.971c2.909-1.176,5.192-3.393,6.195-6.266h2.563v4.846h4.5l-0.52,2.391h-3.98
v10.489c0,1.833,0.415,2.527,2.248,2.527c0.73,0,1.803-0.138,2.391-0.243v1.143c-0.936,0.935-2.805,2.285-6.023,2.285
C225.745,57.291,224.082,55.699,224.082,51.89"/>
<path fill="#231F20" d="M236.441,55.768l0.658-0.174c1.385-0.38,1.453-0.484,1.453-2.078V43.201c0-1.523-0.137-1.662-1.178-2.459
l-1.106-0.83v-0.797l8.656-0.865l0.448,0.311c-0.102,1.629-0.141,2.736-0.141,4.328v10.627c0,1.629,0.105,1.732,1.457,2.078
l0.656,0.174v1.107h-10.904V55.768z M238.172,33.82c0-1.975,1.559-3.29,3.565-3.29c2.01,0,3.564,1.315,3.564,3.29
c0,1.973-1.555,3.287-3.564,3.287C239.73,37.107,238.172,35.793,238.172,33.82"/>
<path fill="#231F20" d="M249.354,51.89v-10.8h-2.077v-0.971c2.907-1.176,5.193-3.393,6.196-6.266h2.563v4.846h4.498l-0.518,2.391
h-3.98v10.489c0,1.833,0.415,2.527,2.248,2.527c0.728,0,1.801-0.138,2.39-0.243v1.143c-0.935,0.935-2.802,2.285-6.022,2.285
C251.018,57.291,249.354,55.699,249.354,51.89"/>
<path fill="#231F20" d="M263.825,52.651v-9.554c0-1.523-0.032-1.697-1.179-2.458l-1.105-0.728v-0.797l8.517-0.865l0.449,0.311
v12.395c0,2.078,0.726,2.667,2.041,2.667c1.04,0,1.871-0.278,2.46-0.45V43.098c0-1.523-0.105-1.767-1.178-2.458l-1.109-0.728v-0.797
l8.518-0.865l0.449,0.311v13.815c0,1.799,0.036,1.972,1.18,2.423l0.863,0.346v0.969l-8.1,1.178l-0.451-0.312l0.07-2.425h-0.174
c-1.871,1.421-3.912,2.736-6.752,2.736C265.625,57.291,263.825,55.732,263.825,52.651"/>
<path fill="#231F20" d="M285.637,51.89v-10.8h-2.08v-0.971c2.908-1.176,5.191-3.393,6.199-6.266h2.561v4.846h4.5l-0.52,2.391h-3.98
v10.489c0,1.833,0.414,2.527,2.25,2.527c0.727,0,1.799-0.138,2.391-0.243v1.143c-0.938,0.935-2.807,2.285-6.023,2.285
C287.297,57.291,285.637,55.699,285.637,51.89"/>
<path fill="#231F20" d="M297.992,55.768l0.658-0.174c1.387-0.38,1.453-0.484,1.453-2.078V43.201c0-1.523-0.137-1.662-1.176-2.459
l-1.109-0.83v-0.797l8.654-0.865l0.453,0.311c-0.105,1.629-0.141,2.736-0.141,4.328v10.627c0,1.629,0.107,1.732,1.455,2.078
l0.656,0.174v1.107h-10.904V55.768z M299.725,33.82c0-1.975,1.557-3.29,3.566-3.29s3.564,1.315,3.564,3.29
c0,1.973-1.555,3.287-3.564,3.287S299.725,35.793,299.725,33.82"/>
<path fill="#231F20" d="M309.072,47.84c0-6.959,4.982-9.59,9.832-9.59c5.086,0,9.83,3.012,9.83,9.453
c0,6.957-4.881,9.588-9.83,9.588C313.781,57.291,309.072,54.278,309.072,47.84 M321.811,47.979c0-7.443-1.176-8.171-3.01-8.171
c-1.73,0-2.805,1.212-2.805,7.409c0,7.581,0.9,8.516,2.977,8.516C320.529,55.732,321.811,55.214,321.811,47.979"/>
<path fill="#231F20" d="M329.117,55.768l0.656-0.173c1.387-0.381,1.453-0.485,1.453-2.077V43.201c0-1.523-0.137-1.662-1.176-2.457
l-1.107-0.832v-0.797l8.344-0.865l0.449,0.311l-0.07,2.32h0.176c1.869-1.42,4.051-2.631,6.75-2.631s4.498,1.558,4.498,4.639v10.629
c0,1.627,0.107,1.73,1.455,2.077l0.656,0.173v1.107h-10.594v-1.107l0.557-0.138c1.211-0.313,1.246-0.382,1.246-2.112v-8.933
c0-1.938-0.762-2.526-2.076-2.526c-1.006,0-1.803,0.103-2.424,0.207v11.252c0,1.766,0.033,1.799,1.246,2.112l0.555,0.138v1.107
h-10.594V55.768z"/>
</svg>